PathFileType	4	(X/Y/Z)	/Users/itak/Documents/Research/Walk-IL/dataset/trc/00330_00011.trc
DataRate	CameraRate	NumFrames	NumMarkers	Units	OrigDataRate	OrigDataStartFrame	OrigNumFrames
100.000000	100.000000	4	53	mm	100.000000	61	493
Frame#	Time	RPSI			LPSI			L3			STRN			T10			C7			CLAV			RBAK			LBAK			LSHO			LUPA			LAEL			LAOL			LWTS			LWPS			LFRA			LIFD			LHTS			RSHO			RUPA			RAEL			RAOL			RWPS			RFRA			RIFD			RHTS			RHPS			RBHD			LFHD			RFHD			LBHD			LHIP			RHIP			RASI			LASI			LKNE			LTHI			LANK			LTIP			LTOE			LMT1			LMT5			LHEE			RKNE			RTHI			RANK			RTIP			RTOE			RMT1			RMT5			RHEE			RWTS			LHPS			
		X1	Y1	Z1	X2	Y2	Z2	X3	Y3	Z3	X4	Y4	Z4	X5	Y5	Z5	X6	Y6	Z6	X7	Y7	Z7	X8	Y8	Z8	X9	Y9	Z9	X10	Y10	Z10	X11	Y11	Z11	X12	Y12	Z12	X13	Y13	Z13	X14	Y14	Z14	X15	Y15	Z15	X16	Y16	Z16	X17	Y17	Z17	X18	Y18	Z18	X19	Y19	Z19	X20	Y20	Z20	X21	Y21	Z21	X22	Y22	Z22	X23	Y23	Z23	X24	Y24	Z24	X25	Y25	Z25	X26	Y26	Z26	X27	Y27	Z27	X28	Y28	Z28	X29	Y29	Z29	X30	Y30	Z30	X31	Y31	Z31	X32	Y32	Z32	X33	Y33	Z33	X34	Y34	Z34	X35	Y35	Z35	X36	Y36	Z36	X37	Y37	Z37	X38	Y38	Z38	X39	Y39	Z39	X40	Y40	Z40	X41	Y41	Z41	X42	Y42	Z42	X43	Y43	Z43	X44	Y44	Z44	X45	Y45	Z45	X46	Y46	Z46	X47	Y47	Z47	X48	Y48	Z48	X49	Y49	Z49	X50	Y50	Z50	X51	Y51	Z51	X52	Y52	Z52	X53	Y53	Z53	

62	0.61	868.843994140625	965.6221313476562	200.7800598144531	863.355712890625	967.7310791015625	71.51470184326172	856.0980834960938	1028.31787109375	143.2318725585938	1084.048950195312	1212.675903320312	114.6415557861328	845.2998657226562	1148.8955078125	134.0960083007812	882.1064453125	1396.01416015625	110.68359375	1039.247314453125	1336.17626953125	108.9665603637695	838.4221801757812	1260.498413085938	188.8804168701172	870.3263549804688	1355.651733398438	10.00327682495117	953.623046875	1371.91796875	-50.21819686889648	940.8395385742188	1248.874145507812	-114.0326309204102	971.4283447265625	1044.175659179688	-116.629768371582	908.3766479492188	1031.166625976562	-61.16897583007812	1078.632934570312	808.3367309570312	-58.37020492553711	1039.035034179688	792.3749389648438	-112.6894073486328	992.3333740234375	940.8268432617188	-117.7350158691406	1087.8583984375	648.4080810546875	-43.56637573242188	1093.4736328125	729.9677124023438	-70.42072296142578	954.301513671875	1386.143920898438	269.0943298339844	953.7540893554688	1323.702758789062	338.77978515625	983.5764770507812	1055.305786132812	373.1465759277344	919.2081298828125	1044.632934570312	301.545654296875	1068.948364257812	815.1726684570312	372.8693237304688	1012.124328613281	988.8670043945312	373.2475280761719	1103.297729492188	658.2281494140625	300.1740112304688	1119.5380859375	730.2205200195312	306.077392578125	1086.619995117188	731.3875732421875	367.7177734375	908.9541625976562	1591.330078125	183.4327392578125	1073.544067382812	1625.612915039062	60.03262710571289	1066.090087890625	1627.076904296875	160.8593597412109	893.5146484375	1580.00390625	39.82860565185547	951.0264892578125	912.6222534179688	-34.29426956176758	954.4946899414062	912.2484130859375	305.4450378417969	1055.389770507812	946.630615234375	258.9848327636719	1069.382080078125	944.6218872070312	18.6568546295166	1015.638854980469	454.1905822753906	-25.8109016418457	1006.824035644531	595.1775512695312	-32.46943283081055	924.455078125	40.51259231567383	-13.06399154663086	969.5309448242188	240.5730743408203	-28.83821487426758	1130.787719726562	31.14065551757812	44.35349655151367	1060.557495117188	21.09764289855957	85.07976531982422	1049.656372070312	36.63898468017578	-27.01108932495117	889.5997314453125	34.98535537719727	53.89722061157227	996.8135375976562	449.1047973632812	267.6600036621094	1027.26953125	707.8949584960938	301.6222534179688	925.632080078125	39.71635437011719	223.8848724365234	1000.191345214844	329.4805908203125	249.8742523193359	1113.820556640625	36.29109191894531	157.5309295654297	1055.461303710938	32.04472732543945	121.2095336914062	1027.512084960938	26.05606079101562	235.0291900634766	871.2546997070312	42.55191040039062	179.7630767822266	1083.195434570312	829.4176635742188	298.8587341308594	1038.364379882812	722.5096435546875	-102.4014358520508	
63	0.62	867.9371948242188	965.3067626953125	200.9169158935547	862.3799438476562	967.5072021484375	71.70205688476562	854.7752685546875	1028.276611328125	143.2718505859375	1083.057983398438	1212.684692382812	114.8594665527344	844.6019287109375	1148.854736328125	134.1215972900391	881.2166748046875	1395.882934570312	110.7988204956055	1038.267700195312	1336.1845703125	109.1427841186523	837.4656372070312	1260.4365234375	188.9145202636719	869.551025390625	1355.60791015625	10.05997657775879	952.888671875	1372.020874023438	-50.08443450927734	940.3221435546875	1249.013793945312	-114.0246047973633	970.9058837890625	1044.369018554688	-116.7249298095703	907.7308349609375	1031.3203125	-61.42385864257812	1077.880615234375	808.3428955078125	-58.40008163452148	1038.403442382812	792.4697265625	-112.866943359375	991.8217163085938	941.0453491210938	-117.8686752319336	1087.003784179688	648.5008544921875	-43.75075531005859	1092.758422851562	730.0491333007812	-70.55641937255859	953.2843627929688	1386.128662109375	269.2429504394531	952.7730712890625	1323.598510742188	338.9123229980469	982.4647827148438	1055.134155273438	373.1924133300781	918.1831665039062	1044.4931640625	301.5857849121094	1067.59912109375	815.007080078125	373.0640258789062	1010.9208984375	988.7112426757812	373.3143005371094	1101.631713867188	657.9110107421875	300.5071411132812	1117.998901367188	729.8646240234375	306.3841857910156	1085.101806640625	731.16845703125	367.9937133789062	907.8406372070312	1591.2685546875	183.2410430908203	1072.491821289062	1625.630249023438	59.90140914916992	1064.97998046875	1627.213256835938	160.7257080078125	892.51318359375	1579.793701171875	39.67500305175781	951.11865234375	912.433837890625	-33.83600997924805	953.7348022460938	912.1760864257812	305.6263732910156	1054.54541015625	946.6480102539062	259.1193237304688	1068.5556640625	944.8186645507812	18.73114585876465	1015.248962402344	454.2211608886719	-25.84559059143066	1006.381286621094	595.222412109375	-32.53430938720703	924.4432373046875	40.49015045166016	-13.07901954650879	969.3114013671875	240.5896301269531	-28.86313438415527	1130.757690429688	31.14266586303711	44.33275604248047	1060.540649414062	21.09714317321777	85.06349945068359	1049.633056640625	36.61212921142578	-27.05279159545898	889.5955200195312	34.95823669433594	53.8701286315918	996.7618408203125	449.1583251953125	267.669189453125	1025.989013671875	708.3388061523438	302.2411193847656	925.6165771484375	39.71646118164062	223.8775787353516	1000.166564941406	329.4416809082031	249.8523406982422	1113.815551757812	36.31415939331055	157.5356292724609	1055.447875976562	32.04977035522461	121.2123031616211	1027.507446289062	26.06162643432617	235.0324096679688	871.2649536132812	42.55585098266602	179.7382202148438	1081.841186523438	829.1949462890625	299.0523681640625	1037.66796875	722.6555786132812	-102.6435394287109	
64	0.63	867.0680541992188	965.049560546875	201.0682373046875	861.4475708007812	967.2923583984375	71.88540649414062	853.4993896484375	1028.2060546875	143.3236846923828	1082.091064453125	1212.677612304688	115.0757827758789	843.9070434570312	1148.791625976562	134.1738586425781	880.32763671875	1395.754028320312	110.9343185424805	1037.29345703125	1336.20068359375	109.3118896484375	836.4774780273438	1260.348022460938	188.9149932861328	868.73779296875	1355.549560546875	10.14372158050537	952.1242065429688	1372.1015625	-49.95782089233398	939.7465209960938	1249.141357421875	-114.0028457641602	970.3958740234375	1044.554077148438	-116.8232803344727	907.0802001953125	1031.437133789062	-61.69783020019531	1077.14111328125	808.3670654296875	-58.3697395324707	1037.871704101562	792.6062622070312	-113.0355606079102	991.3547973632812	941.2521362304688	-118.0001068115234	1086.207397460938	648.62548828125	-43.96057891845703	1092.07470703125	730.1195678710938	-70.59745788574219	952.2642211914062	1386.083374023438	269.4162902832031	951.7592163085938	1323.45751953125	339.0407409667969	981.294677734375	1054.943725585938	373.2442321777344	917.1040649414062	1044.283081054688	301.6666564941406	1066.197631835938	814.8197021484375	373.2224426269531	1009.671020507812	988.5242309570312	373.3748779296875	1099.983642578125	657.5912475585938	300.7824096679688	1116.458129882812	729.5142822265625	306.6338806152344	1083.572998046875	730.931396484375	368.2228393554688	906.7393798828125	1591.249877929688	183.0574493408203	1071.46337890625	1625.607788085938	59.77502059936523	1063.885375976562	1627.326049804688	160.6043090820312	891.517822265625	1579.629516601562	39.52011489868164	951.001220703125	912.2528686523438	-33.45554733276367	952.9786987304688	912.129638671875	305.8101501464844	1053.7216796875	946.6536865234375	259.2315979003906	1067.737426757812	944.9827880859375	18.81033515930176	1014.875122070312	454.245849609375	-25.86919975280762	1005.930053710938	595.25439453125	-32.61379241943359	924.4307861328125	40.46810150146484	-13.09047985076904	969.090576171875	240.6045227050781	-28.87875556945801	1130.725219726562	31.14164543151855	44.31781768798828	1060.531494140625	21.09366416931152	85.05140686035156	1049.613647460938	36.58478927612305	-27.08830261230469	889.59912109375	34.92152404785156	53.85688400268555	996.723388671875	449.2069396972656	267.6630249023438	1024.724609375	708.7630004882812	302.8495483398438	925.6033325195312	39.71805953979492	223.8586120605469	1000.155822753906	329.4005126953125	249.8087310791016	1113.8076171875	36.330322265625	157.5351104736328	1055.439331054688	32.04229354858398	121.2090759277344	1027.502075195312	26.07011222839355	235.0316619873047	871.2702026367188	42.56342315673828	179.7038726806641	1080.452392578125	828.9580688476562	299.2261657714844	1037.089477539062	722.8233032226562	-102.9350128173828	
65	0.64	866.2400512695312	964.857666015625	201.2301330566406	860.5745849609375	967.0910034179688	72.06423950195312	852.3086547851562	1028.11083984375	143.3953552246094	1081.145385742188	1212.650024414062	115.2859268188477	843.16357421875	1148.718017578125	134.2464141845703	879.4413452148438	1395.635131835938	111.0852813720703	1036.331298828125	1336.218505859375	109.4694290161133	835.4620361328125	1260.24658203125	188.8854827880859	867.8925170898438	1355.4853515625	10.24868679046631	951.33447265625	1372.155883789062	-49.84054946899414	939.1044311523438	1249.247924804688	-113.9648513793945	969.8858642578125	1044.718383789062	-116.9239349365234	906.4183959960938	1031.508544921875	-61.97396850585938	1076.411499023438	808.4056396484375	-58.30307769775391	1037.42236328125	792.777099609375	-113.1929092407227	990.9048461914062	941.4320678710938	-118.1288452148438	1085.46630859375	648.7506713867188	-44.18340301513672	1091.40234375	730.1638793945312	-70.55287933349609	951.246337890625	1386.011840820312	269.60595703125	950.7176513671875	1323.289672851562	339.1624755859375	980.0675659179688	1054.74462890625	373.3033142089844	915.9812622070312	1044.02001953125	301.7597961425781	1064.735595703125	814.6097412109375	373.3460693359375	1008.374328613281	988.3174438476562	373.4300842285156	1098.357666015625	657.2791137695312	300.999755859375	1114.917236328125	729.1806030273438	306.8245239257812	1082.0263671875	730.6766357421875	368.404052734375	905.6541748046875	1591.264892578125	182.89404296875	1070.452392578125	1625.554809570312	59.65888214111328	1062.80517578125	1627.41552734375	160.5003356933594	890.5258178710938	1579.502807617188	39.37544631958008	950.51123046875	912.1026611328125	-33.20461654663086	952.216552734375	912.1112670898438	305.9856872558594	1052.919921875	946.6596069335938	259.3217468261719	1066.9248046875	945.1007080078125	18.89997673034668	1014.514526367188	454.2691955566406	-25.87589645385742	1005.462280273438	595.276611328125	-32.69562911987305	924.4183959960938	40.44670104980469	-13.09752464294434	968.869384765625	240.6194152832031	-28.88297080993652	1130.69091796875	31.13912200927734	44.30696868896484	1060.52880859375	21.08624839782715	85.04460144042969	1049.5986328125	36.55756378173828	-27.11664962768555	889.6109008789062	34.87517166137695	53.85813140869141	996.694091796875	449.2483520507812	267.6359252929688	1023.521362304688	709.1451416015625	303.4194946289062	925.5916137695312	39.72327041625977	223.8260192871094	1000.154235839844	329.3586730957031	249.7412567138672	1113.797241210938	36.33834457397461	157.5285034179688	1055.437133789062	32.02090454101562	121.1982040405273	1027.496215820312	26.08332252502441	235.0239868164062	871.2680053710938	42.57285690307617	179.6574554443359	1079.030151367188	828.7051391601562	299.3825378417969	1036.618530273438	723.0046997070312	-103.2656860351562	
